<svg id="visual" viewBox="0 0 900 300" width="900" height="300" xmlns="http://www.w3.org/2000/svg" xmlns:xlink="http://www.w3.org/1999/xlink" version="1.1"><rect x="0" y="0" width="900" height="300" fill="#FFDED3"></rect><path d="M0 62L56 85L113 35L169 37L225 67L281 81L338 50L394 73L450 44L506 70L563 46L619 52L675 35L731 50L788 65L844 38L900 70L900 301L844 301L788 301L731 301L675 301L619 301L563 301L506 301L450 301L394 301L338 301L281 301L225 301L169 301L113 301L56 301L0 301Z" fill="#a29ac5"></path><path d="M0 112L56 132L113 100L169 93L225 88L281 100L338 106L394 97L450 110L506 126L563 120L619 105L675 119L731 110L788 106L844 78L900 101L900 301L844 301L788 301L731 301L675 301L619 301L563 301L506 301L450 301L394 301L338 301L281 301L225 301L169 301L113 301L56 301L0 301Z" fill="#8f7c9f"></path><path d="M0 177L56 165L113 157L169 173L225 127L281 170L338 167L394 177L450 173L506 133L563 154L619 181L675 143L731 158L788 155L844 171L900 150L900 301L844 301L788 301L731 301L675 301L619 301L563 301L506 301L450 301L394 301L338 301L281 301L225 301L169 301L113 301L56 301L0 301Z" fill="#79617a"></path><path d="M0 211L56 183L113 220L169 179L225 199L281 197L338 188L394 205L450 195L506 192L563 184L619 227L675 179L731 217L788 212L844 183L900 177L900 301L844 301L788 301L731 301L675 301L619 301L563 301L506 301L450 301L394 301L338 301L281 301L225 301L169 301L113 301L56 301L0 301Z" fill="#604858"></path><path d="M0 224L56 268L113 245L169 240L225 265L281 253L338 236L394 260L450 239L506 259L563 229L619 268L675 268L731 233L788 225L844 238L900 229L900 301L844 301L788 301L731 301L675 301L619 301L563 301L506 301L450 301L394 301L338 301L281 301L225 301L169 301L113 301L56 301L0 301Z" fill="#45313a"></path></svg>