<svg id="visual" viewBox="0 0 4000 2000" width="4000" height="2000" xmlns="http://www.w3.org/2000/svg" xmlns:xlink="http://www.w3.org/1999/xlink" version="1.1"><g stroke-width="1" stroke-linejoin="bevel"><path d="M2003 1064L1819 1088L1909 1174Z" fill="#0a290c" stroke="#74ff00"></path><path d="M1819 1088L1753 1140L1909 1174Z" fill="#0e400d" stroke="#74ff00"></path><path d="M2289 1165L2143 1000L2003 1064Z" fill="#09220a" stroke="#74ff00"></path><path d="M1857 749L1626 951L1819 1088Z" fill="#164f09" stroke="#74ff00"></path><path d="M1857 749L1819 1088L2003 1064Z" fill="#0b300e" stroke="#74ff00"></path><path d="M1819 1088L1626 951L1753 1140Z" fill="#164f09" stroke="#74ff00"></path><path d="M2143 1000L2067 791L2003 1064Z" fill="#09220a" stroke="#74ff00"></path><path d="M2067 791L1857 749L2003 1064Z" fill="#09220a" stroke="#74ff00"></path><path d="M1571 1221L1766 1409L1753 1140Z" fill="#0a290c" stroke="#74ff00"></path><path d="M1753 1140L1766 1409L1909 1174Z" fill="#051b06" stroke="#74ff00"></path><path d="M2195 1353L2289 1165L2003 1064Z" fill="#09220a" stroke="#74ff00"></path><path d="M1626 951L1571 1221L1753 1140Z" fill="#205f00" stroke="#74ff00"></path><path d="M2195 1353L2003 1064L1909 1174Z" fill="#051b06" stroke="#74ff00"></path><path d="M2143 1000L2227 783L2067 791Z" fill="#09220a" stroke="#74ff00"></path><path d="M1942 1494L2195 1353L1909 1174Z" fill="#205f00" stroke="#74ff00"></path><path d="M1766 1409L1942 1494L1909 1174Z" fill="#0b300e" stroke="#74ff00"></path><path d="M1857 749L1640 748L1626 951Z" fill="#0c380e" stroke="#74ff00"></path><path d="M1626 951L1460 1000L1571 1221Z" fill="#205f00" stroke="#74ff00"></path><path d="M2388 801L2227 783L2143 1000Z" fill="#164f09" stroke="#74ff00"></path><path d="M2067 791L1881 567L1857 749Z" fill="#0c380e" stroke="#74ff00"></path><path d="M1942 1494L2018 1517L2195 1353Z" fill="#1b5705" stroke="#74ff00"></path><path d="M2386 1196L2369 1093L2289 1165Z" fill="#0a290c" stroke="#74ff00"></path><path d="M2289 1165L2369 1093L2143 1000Z" fill="#164f09" stroke="#74ff00"></path><path d="M1384 800L1460 1000L1626 951Z" fill="#0c380e" stroke="#74ff00"></path><path d="M2195 1353L2386 1196L2289 1165Z" fill="#0e400d" stroke="#74ff00"></path><path d="M2329 1467L2386 1196L2195 1353Z" fill="#12470c" stroke="#74ff00"></path><path d="M1571 1221L1610 1471L1766 1409Z" fill="#1b5705" stroke="#74ff00"></path><path d="M1766 1409L1755 1560L1942 1494Z" fill="#0c380e" stroke="#74ff00"></path><path d="M1942 1494L1927 1870L2018 1517Z" fill="#0e400d" stroke="#74ff00"></path><path d="M1416 1422L1610 1471L1571 1221Z" fill="#0a290c" stroke="#74ff00"></path><path d="M1610 1471L1755 1560L1766 1409Z" fill="#205f00" stroke="#74ff00"></path><path d="M1976 518L1881 567L2067 791Z" fill="#0b300e" stroke="#74ff00"></path><path d="M1857 749L1881 567L1640 748Z" fill="#09220a" stroke="#74ff00"></path><path d="M1460 1000L1402 1205L1571 1221Z" fill="#1b5705" stroke="#74ff00"></path><path d="M1927 1870L2112 1590L2018 1517Z" fill="#0c380e" stroke="#74ff00"></path><path d="M2018 1517L2112 1590L2195 1353Z" fill="#0c380e" stroke="#74ff00"></path><path d="M2369 1093L2388 801L2143 1000Z" fill="#09220a" stroke="#74ff00"></path><path d="M2130 503L1976 518L2067 791Z" fill="#0a290c" stroke="#74ff00"></path><path d="M2610 1071L2388 801L2369 1093Z" fill="#205f00" stroke="#74ff00"></path><path d="M2130 503L2067 791L2227 783Z" fill="#0c380e" stroke="#74ff00"></path><path d="M2112 1590L2329 1467L2195 1353Z" fill="#164f09" stroke="#74ff00"></path><path d="M1439 666L1384 800L1640 748Z" fill="#164f09" stroke="#74ff00"></path><path d="M1640 748L1384 800L1626 951Z" fill="#164f09" stroke="#74ff00"></path><path d="M1460 1000L1214 1055L1402 1205Z" fill="#0e400d" stroke="#74ff00"></path><path d="M1626 532L1640 748L1881 567Z" fill="#12470c" stroke="#74ff00"></path><path d="M1402 1205L1416 1422L1571 1221Z" fill="#1b5705" stroke="#74ff00"></path><path d="M1610 1471L1511 1643L1755 1560Z" fill="#1b5705" stroke="#74ff00"></path><path d="M2436 560L2130 503L2227 783Z" fill="#0e400d" stroke="#74ff00"></path><path d="M1784 475L1881 567L1976 518Z" fill="#1b5705" stroke="#74ff00"></path><path d="M1784 475L1626 532L1881 567Z" fill="#1b5705" stroke="#74ff00"></path><path d="M1898 140L1784 475L1976 518Z" fill="#0e400d" stroke="#74ff00"></path><path d="M1626 532L1439 666L1640 748Z" fill="#1b5705" stroke="#74ff00"></path><path d="M1068 677L1297 890L1384 800Z" fill="#1b5705" stroke="#74ff00"></path><path d="M1384 800L1297 890L1460 1000Z" fill="#09220a" stroke="#74ff00"></path><path d="M1402 1205L1284 1393L1416 1422Z" fill="#0b300e" stroke="#74ff00"></path><path d="M2107 284L2092 436L2258 336Z" fill="#051b06" stroke="#74ff00"></path><path d="M2130 503L2092 436L1976 518Z" fill="#0a290c" stroke="#74ff00"></path><path d="M1416 1422L1511 1643L1610 1471Z" fill="#051b06" stroke="#74ff00"></path><path d="M1927 1870L2257 1788L2112 1590Z" fill="#0b300e" stroke="#74ff00"></path><path d="M1297 890L1214 1055L1460 1000Z" fill="#164f09" stroke="#74ff00"></path><path d="M1252 1598L1460 1694L1511 1643Z" fill="#09220a" stroke="#74ff00"></path><path d="M2614 1121L2369 1093L2386 1196Z" fill="#0b300e" stroke="#74ff00"></path><path d="M2614 1121L2610 1071L2369 1093Z" fill="#1b5705" stroke="#74ff00"></path><path d="M2388 801L2436 560L2227 783Z" fill="#205f00" stroke="#74ff00"></path><path d="M1111 1252L1284 1393L1402 1205Z" fill="#0a290c" stroke="#74ff00"></path><path d="M2669 1365L2614 1121L2386 1196Z" fill="#0e400d" stroke="#74ff00"></path><path d="M2257 1788L2328 1662L2112 1590Z" fill="#164f09" stroke="#74ff00"></path><path d="M2112 1590L2328 1662L2329 1467Z" fill="#001402" stroke="#74ff00"></path><path d="M2329 1467L2669 1365L2386 1196Z" fill="#0e400d" stroke="#74ff00"></path><path d="M2509 624L2436 560L2388 801Z" fill="#164f09" stroke="#74ff00"></path><path d="M2671 724L2509 624L2388 801Z" fill="#0a290c" stroke="#74ff00"></path><path d="M1252 1598L1511 1643L1416 1422Z" fill="#0a290c" stroke="#74ff00"></path><path d="M1807 1869L1927 1870L1755 1560Z" fill="#164f09" stroke="#74ff00"></path><path d="M1927 1870L1942 1494L1755 1560Z" fill="#09220a" stroke="#74ff00"></path><path d="M1807 1869L1755 1560L1509 1774Z" fill="#001402" stroke="#74ff00"></path><path d="M1509 1774L1755 1560L1511 1643Z" fill="#205f00" stroke="#74ff00"></path><path d="M1575 318L1464 417L1626 532Z" fill="#051b06" stroke="#74ff00"></path><path d="M1626 532L1464 417L1439 666Z" fill="#051b06" stroke="#74ff00"></path><path d="M1439 666L1285 562L1384 800Z" fill="#0e400d" stroke="#74ff00"></path><path d="M1297 890L977 1014L1214 1055Z" fill="#205f00" stroke="#74ff00"></path><path d="M1575 318L1626 532L1641 283Z" fill="#0b300e" stroke="#74ff00"></path><path d="M1460 1694L1509 1774L1511 1643Z" fill="#0b300e" stroke="#74ff00"></path><path d="M2542 1653L2329 1467L2328 1662Z" fill="#001402" stroke="#74ff00"></path><path d="M2542 1653L2669 1365L2329 1467Z" fill="#0b300e" stroke="#74ff00"></path><path d="M2747 942L2671 724L2610 1071Z" fill="#051b06" stroke="#74ff00"></path><path d="M1464 417L1285 562L1439 666Z" fill="#12470c" stroke="#74ff00"></path><path d="M977 1014L1111 1252L1214 1055Z" fill="#0e400d" stroke="#74ff00"></path><path d="M1214 1055L1111 1252L1402 1205Z" fill="#0a290c" stroke="#74ff00"></path><path d="M1284 1393L1252 1598L1416 1422Z" fill="#0b300e" stroke="#74ff00"></path><path d="M1460 1694L1340 1707L1509 1774Z" fill="#164f09" stroke="#74ff00"></path><path d="M2258 336L2092 436L2130 503Z" fill="#0e400d" stroke="#74ff00"></path><path d="M2092 436L2107 284L1976 518Z" fill="#0b300e" stroke="#74ff00"></path><path d="M2355 336L2258 336L2436 560Z" fill="#0c380e" stroke="#74ff00"></path><path d="M2436 560L2258 336L2130 503Z" fill="#0a290c" stroke="#74ff00"></path><path d="M1641 283L1626 532L1784 475Z" fill="#0e400d" stroke="#74ff00"></path><path d="M1464 417L1273 441L1285 562Z" fill="#09220a" stroke="#74ff00"></path><path d="M1066 1509L1252 1598L1284 1393Z" fill="#164f09" stroke="#74ff00"></path><path d="M2610 1071L2671 724L2388 801Z" fill="#12470c" stroke="#74ff00"></path><path d="M2417 260L2355 336L2614 348Z" fill="#0a290c" stroke="#74ff00"></path><path d="M2747 942L2610 1071L2877 1122Z" fill="#09220a" stroke="#74ff00"></path><path d="M1898 140L1641 283L1784 475Z" fill="#0c380e" stroke="#74ff00"></path><path d="M2877 1122L2610 1071L2614 1121Z" fill="#1b5705" stroke="#74ff00"></path><path d="M1252 1598L1340 1707L1460 1694Z" fill="#164f09" stroke="#74ff00"></path><path d="M2257 1788L2488 1707L2328 1662Z" fill="#001402" stroke="#74ff00"></path><path d="M2488 1707L2542 1653L2328 1662Z" fill="#0c380e" stroke="#74ff00"></path><path d="M2355 336L2436 560L2614 348Z" fill="#12470c" stroke="#74ff00"></path><path d="M2224 0L2038 138L2107 284Z" fill="#051b06" stroke="#74ff00"></path><path d="M1303 299L1464 417L1575 318Z" fill="#001402" stroke="#74ff00"></path><path d="M1303 299L1273 441L1464 417Z" fill="#0e400d" stroke="#74ff00"></path><path d="M1285 562L1068 677L1384 800Z" fill="#164f09" stroke="#74ff00"></path><path d="M1850 2000L1916 2000L1927 1870Z" fill="#001402" stroke="#74ff00"></path><path d="M1927 1870L2287 2000L2257 1788Z" fill="#0c380e" stroke="#74ff00"></path><path d="M2257 1788L2460 2000L2488 1707Z" fill="#205f00" stroke="#74ff00"></path><path d="M1850 2000L1927 1870L1807 1869Z" fill="#1b5705" stroke="#74ff00"></path><path d="M1850 2000L1807 1869L1527 2000Z" fill="#0e400d" stroke="#74ff00"></path><path d="M1527 2000L1807 1869L1509 1774Z" fill="#0a290c" stroke="#74ff00"></path><path d="M1005 411L1068 677L1285 562Z" fill="#0a290c" stroke="#74ff00"></path><path d="M930 818L977 1014L1297 890Z" fill="#0e400d" stroke="#74ff00"></path><path d="M1111 1252L1066 1509L1284 1393Z" fill="#0e400d" stroke="#74ff00"></path><path d="M2698 1770L2736 1534L2542 1653Z" fill="#164f09" stroke="#74ff00"></path><path d="M2542 1653L2736 1534L2669 1365Z" fill="#1b5705" stroke="#74ff00"></path><path d="M2669 1365L2877 1122L2614 1121Z" fill="#12470c" stroke="#74ff00"></path><path d="M2038 138L1898 140L2107 284Z" fill="#0c380e" stroke="#74ff00"></path><path d="M2107 284L1898 140L1976 518Z" fill="#1b5705" stroke="#74ff00"></path><path d="M1248 183L1303 299L1356 0Z" fill="#051b06" stroke="#74ff00"></path><path d="M978 1265L1066 1509L1111 1252Z" fill="#0a290c" stroke="#74ff00"></path><path d="M1252 1598L1175 1791L1340 1707Z" fill="#051b06" stroke="#74ff00"></path><path d="M2224 0L2107 284L2258 336Z" fill="#0a290c" stroke="#74ff00"></path><path d="M977 1014L978 1265L1111 1252Z" fill="#001402" stroke="#74ff00"></path><path d="M2614 348L2436 560L2509 624Z" fill="#164f09" stroke="#74ff00"></path><path d="M2355 336L2417 260L2258 336Z" fill="#12470c" stroke="#74ff00"></path><path d="M2897 1478L2877 1122L2669 1365Z" fill="#051b06" stroke="#74ff00"></path><path d="M2747 942L2850 767L2671 724Z" fill="#0b300e" stroke="#74ff00"></path><path d="M2901 937L2850 767L2747 942Z" fill="#0e400d" stroke="#74ff00"></path><path d="M2671 724L2723 496L2509 624Z" fill="#09220a" stroke="#74ff00"></path><path d="M1669 0L1575 318L1641 283Z" fill="#09220a" stroke="#74ff00"></path><path d="M1273 441L1005 411L1285 562Z" fill="#0c380e" stroke="#74ff00"></path><path d="M1916 2000L2287 2000L1927 1870Z" fill="#001402" stroke="#74ff00"></path><path d="M2488 1707L2698 1770L2542 1653Z" fill="#0c380e" stroke="#74ff00"></path><path d="M1355 2000L1509 1774L1340 1707Z" fill="#0a290c" stroke="#74ff00"></path><path d="M1355 2000L1527 2000L1509 1774Z" fill="#0a290c" stroke="#74ff00"></path><path d="M2877 1122L2901 937L2747 942Z" fill="#0b300e" stroke="#74ff00"></path><path d="M2854 644L2723 496L2671 724Z" fill="#001402" stroke="#74ff00"></path><path d="M2723 496L2614 348L2509 624Z" fill="#001402" stroke="#74ff00"></path><path d="M1068 677L930 818L1297 890Z" fill="#0b300e" stroke="#74ff00"></path><path d="M977 1014L895 1263L978 1265Z" fill="#051b06" stroke="#74ff00"></path><path d="M703 660L930 818L1068 677Z" fill="#205f00" stroke="#74ff00"></path><path d="M1066 1509L1175 1791L1252 1598Z" fill="#205f00" stroke="#74ff00"></path><path d="M701 1089L895 1263L977 1014Z" fill="#12470c" stroke="#74ff00"></path><path d="M978 1265L908 1413L1066 1509Z" fill="#09220a" stroke="#74ff00"></path><path d="M1066 1509L986 1798L1175 1791Z" fill="#205f00" stroke="#74ff00"></path><path d="M2850 767L2854 644L2671 724Z" fill="#164f09" stroke="#74ff00"></path><path d="M2752 294L2601 255L2614 348Z" fill="#051b06" stroke="#74ff00"></path><path d="M3082 792L2854 644L2850 767Z" fill="#09220a" stroke="#74ff00"></path><path d="M2612 2000L2698 1770L2488 1707Z" fill="#09220a" stroke="#74ff00"></path><path d="M2736 1534L2897 1478L2669 1365Z" fill="#051b06" stroke="#74ff00"></path><path d="M870 1308L908 1413L978 1265Z" fill="#0e400d" stroke="#74ff00"></path><path d="M3030 1571L2897 1478L2736 1534Z" fill="#001402" stroke="#74ff00"></path><path d="M2877 1122L2987 1161L2901 937Z" fill="#0e400d" stroke="#74ff00"></path><path d="M683 1242L870 1308L895 1263Z" fill="#0a290c" stroke="#74ff00"></path><path d="M895 1263L870 1308L978 1265Z" fill="#0b300e" stroke="#74ff00"></path><path d="M2287 2000L2460 2000L2257 1788Z" fill="#051b06" stroke="#74ff00"></path><path d="M1175 1791L1355 2000L1340 1707Z" fill="#0b300e" stroke="#74ff00"></path><path d="M2752 294L2614 348L2723 496Z" fill="#051b06" stroke="#74ff00"></path><path d="M2614 348L2601 255L2417 260Z" fill="#164f09" stroke="#74ff00"></path><path d="M2224 0L1940 0L2038 138Z" fill="#0a290c" stroke="#74ff00"></path><path d="M2897 1478L2987 1161L2877 1122Z" fill="#0c380e" stroke="#74ff00"></path><path d="M2901 937L3082 792L2850 767Z" fill="#1b5705" stroke="#74ff00"></path><path d="M2224 0L2258 336L2417 260Z" fill="#0c380e" stroke="#74ff00"></path><path d="M2038 138L1940 0L1898 140Z" fill="#0e400d" stroke="#74ff00"></path><path d="M1898 140L1669 0L1641 283Z" fill="#164f09" stroke="#74ff00"></path><path d="M1940 0L1835 0L1898 140Z" fill="#0a290c" stroke="#74ff00"></path><path d="M1835 0L1669 0L1898 140Z" fill="#12470c" stroke="#74ff00"></path><path d="M1356 0L1303 299L1575 318Z" fill="#205f00" stroke="#74ff00"></path><path d="M1303 299L1005 411L1273 441Z" fill="#0e400d" stroke="#74ff00"></path><path d="M2364 0L2224 0L2417 260Z" fill="#0b300e" stroke="#74ff00"></path><path d="M1248 183L1005 411L1303 299Z" fill="#12470c" stroke="#74ff00"></path><path d="M2698 1770L2757 1830L2736 1534Z" fill="#09220a" stroke="#74ff00"></path><path d="M2612 2000L2757 1830L2698 1770Z" fill="#051b06" stroke="#74ff00"></path><path d="M2948 286L2752 294L2723 496Z" fill="#0e400d" stroke="#74ff00"></path><path d="M2643 0L2364 0L2417 260Z" fill="#12470c" stroke="#74ff00"></path><path d="M3030 1571L3007 1447L2897 1478Z" fill="#0c380e" stroke="#74ff00"></path><path d="M2897 1478L3007 1447L2987 1161Z" fill="#205f00" stroke="#74ff00"></path><path d="M2460 2000L2612 2000L2488 1707Z" fill="#12470c" stroke="#74ff00"></path><path d="M1175 1791L1192 2000L1355 2000Z" fill="#164f09" stroke="#74ff00"></path><path d="M986 1798L1192 2000L1175 1791Z" fill="#1b5705" stroke="#74ff00"></path><path d="M802 1774L1066 1509L908 1413Z" fill="#0c380e" stroke="#74ff00"></path><path d="M802 1774L986 1798L1066 1509Z" fill="#0a290c" stroke="#74ff00"></path><path d="M2643 0L2417 260L2601 255Z" fill="#001402" stroke="#74ff00"></path><path d="M3128 949L2901 937L2987 1161Z" fill="#0e400d" stroke="#74ff00"></path><path d="M3128 949L3082 792L2901 937Z" fill="#164f09" stroke="#74ff00"></path><path d="M2854 644L3064 402L2723 496Z" fill="#12470c" stroke="#74ff00"></path><path d="M700 855L701 1089L977 1014Z" fill="#051b06" stroke="#74ff00"></path><path d="M870 1308L706 1581L908 1413Z" fill="#12470c" stroke="#74ff00"></path><path d="M700 855L977 1014L930 818Z" fill="#0a290c" stroke="#74ff00"></path><path d="M1669 0L1356 0L1575 318Z" fill="#051b06" stroke="#74ff00"></path><path d="M1248 183L1020 181L1005 411Z" fill="#205f00" stroke="#74ff00"></path><path d="M2757 1830L3030 1571L2736 1534Z" fill="#0c380e" stroke="#74ff00"></path><path d="M3293 1242L3128 949L2987 1161Z" fill="#001402" stroke="#74ff00"></path><path d="M3080 1894L3030 1571L2757 1830Z" fill="#09220a" stroke="#74ff00"></path><path d="M3227 1361L2987 1161L3007 1447Z" fill="#09220a" stroke="#74ff00"></path><path d="M2612 2000L2722 2000L2757 1830Z" fill="#164f09" stroke="#74ff00"></path><path d="M703 660L700 855L930 818Z" fill="#0a290c" stroke="#74ff00"></path><path d="M501 1014L683 1242L701 1089Z" fill="#164f09" stroke="#74ff00"></path><path d="M701 1089L683 1242L895 1263Z" fill="#0a290c" stroke="#74ff00"></path><path d="M3082 792L3051 574L2854 644Z" fill="#0c380e" stroke="#74ff00"></path><path d="M3195 788L3051 574L3082 792Z" fill="#0e400d" stroke="#74ff00"></path><path d="M1133 0L1020 181L1248 183Z" fill="#0c380e" stroke="#74ff00"></path><path d="M791 408L703 660L1068 677Z" fill="#0b300e" stroke="#74ff00"></path><path d="M791 408L1068 677L1005 411Z" fill="#09220a" stroke="#74ff00"></path><path d="M700 855L501 1014L701 1089Z" fill="#0b300e" stroke="#74ff00"></path><path d="M683 1242L706 1581L870 1308Z" fill="#09220a" stroke="#74ff00"></path><path d="M986 1798L944 2000L1192 2000Z" fill="#0a290c" stroke="#74ff00"></path><path d="M2702 0L2643 0L2601 255Z" fill="#1b5705" stroke="#74ff00"></path><path d="M2702 0L2601 255L2752 294Z" fill="#001402" stroke="#74ff00"></path><path d="M3064 402L2948 286L2723 496Z" fill="#0c380e" stroke="#74ff00"></path><path d="M1020 181L791 408L1005 411Z" fill="#001402" stroke="#74ff00"></path><path d="M706 1581L802 1774L908 1413Z" fill="#0c380e" stroke="#74ff00"></path><path d="M3415 743L3195 788L3474 1044Z" fill="#09220a" stroke="#74ff00"></path><path d="M3128 949L3195 788L3082 792Z" fill="#09220a" stroke="#74ff00"></path><path d="M3051 574L3064 402L2854 644Z" fill="#12470c" stroke="#74ff00"></path><path d="M791 408L675 600L703 660Z" fill="#09220a" stroke="#74ff00"></path><path d="M703 660L585 811L700 855Z" fill="#051b06" stroke="#74ff00"></path><path d="M1356 0L1133 0L1248 183Z" fill="#1b5705" stroke="#74ff00"></path><path d="M1020 181L711 262L791 408Z" fill="#001402" stroke="#74ff00"></path><path d="M845 2000L944 2000L986 1798Z" fill="#09220a" stroke="#74ff00"></path><path d="M3155 504L3064 402L3051 574Z" fill="#1b5705" stroke="#74ff00"></path><path d="M2948 286L2702 0L2752 294Z" fill="#09220a" stroke="#74ff00"></path><path d="M3074 0L2702 0L2948 286Z" fill="#051b06" stroke="#74ff00"></path><path d="M3250 1513L3007 1447L3030 1571Z" fill="#051b06" stroke="#74ff00"></path><path d="M3250 1513L3227 1361L3007 1447Z" fill="#0c380e" stroke="#74ff00"></path><path d="M675 600L585 811L703 660Z" fill="#001402" stroke="#74ff00"></path><path d="M683 1242L562 1456L706 1581Z" fill="#0a290c" stroke="#74ff00"></path><path d="M3195 788L3155 504L3051 574Z" fill="#051b06" stroke="#74ff00"></path><path d="M3227 1361L3293 1242L2987 1161Z" fill="#051b06" stroke="#74ff00"></path><path d="M3459 399L3190 331L3155 504Z" fill="#0b300e" stroke="#74ff00"></path><path d="M484 1286L562 1456L683 1242Z" fill="#1b5705" stroke="#74ff00"></path><path d="M706 1581L618 1679L802 1774Z" fill="#12470c" stroke="#74ff00"></path><path d="M802 1774L845 2000L986 1798Z" fill="#0a290c" stroke="#74ff00"></path><path d="M3275 1718L3250 1513L3030 1571Z" fill="#12470c" stroke="#74ff00"></path><path d="M3227 1361L3340 1291L3293 1242Z" fill="#1b5705" stroke="#74ff00"></path><path d="M687 2000L845 2000L802 1774Z" fill="#1b5705" stroke="#74ff00"></path><path d="M1133 0L1004 0L1020 181Z" fill="#164f09" stroke="#74ff00"></path><path d="M791 408L625 327L675 600Z" fill="#1b5705" stroke="#74ff00"></path><path d="M585 811L501 1014L700 855Z" fill="#0e400d" stroke="#74ff00"></path><path d="M3027 2000L3080 1894L2757 1830Z" fill="#0b300e" stroke="#74ff00"></path><path d="M562 1456L618 1679L706 1581Z" fill="#051b06" stroke="#74ff00"></path><path d="M501 1014L484 1286L683 1242Z" fill="#205f00" stroke="#74ff00"></path><path d="M489 1888L615 1767L341 1594Z" fill="#0c380e" stroke="#74ff00"></path><path d="M3250 1513L3340 1291L3227 1361Z" fill="#164f09" stroke="#74ff00"></path><path d="M3474 1044L3195 788L3128 949Z" fill="#09220a" stroke="#74ff00"></path><path d="M2722 2000L3027 2000L2757 1830Z" fill="#164f09" stroke="#74ff00"></path><path d="M686 119L711 262L1020 181Z" fill="#0b300e" stroke="#74ff00"></path><path d="M464 600L455 836L585 811Z" fill="#1b5705" stroke="#74ff00"></path><path d="M585 811L455 836L501 1014Z" fill="#001402" stroke="#74ff00"></path><path d="M413 1493L618 1679L562 1456Z" fill="#1b5705" stroke="#74ff00"></path><path d="M618 1679L615 1767L802 1774Z" fill="#12470c" stroke="#74ff00"></path><path d="M464 600L585 811L675 600Z" fill="#09220a" stroke="#74ff00"></path><path d="M501 1014L167 1204L484 1286Z" fill="#205f00" stroke="#74ff00"></path><path d="M3415 743L3155 504L3195 788Z" fill="#001402" stroke="#74ff00"></path><path d="M3155 504L3190 331L3064 402Z" fill="#0c380e" stroke="#74ff00"></path><path d="M3064 402L3150 257L2948 286Z" fill="#001402" stroke="#74ff00"></path><path d="M3190 331L3150 257L3064 402Z" fill="#0a290c" stroke="#74ff00"></path><path d="M686 119L625 327L711 262Z" fill="#0b300e" stroke="#74ff00"></path><path d="M711 262L625 327L791 408Z" fill="#0e400d" stroke="#74ff00"></path><path d="M3136 2000L3275 1718L3080 1894Z" fill="#0a290c" stroke="#74ff00"></path><path d="M3080 1894L3275 1718L3030 1571Z" fill="#051b06" stroke="#74ff00"></path><path d="M3250 1513L3496 1460L3340 1291Z" fill="#0c380e" stroke="#74ff00"></path><path d="M237 838L405 941L455 836Z" fill="#0a290c" stroke="#74ff00"></path><path d="M455 836L405 941L501 1014Z" fill="#001402" stroke="#74ff00"></path><path d="M625 327L464 600L675 600Z" fill="#001402" stroke="#74ff00"></path><path d="M3027 2000L3136 2000L3080 1894Z" fill="#051b06" stroke="#74ff00"></path><path d="M615 1767L687 2000L802 1774Z" fill="#0a290c" stroke="#74ff00"></path><path d="M3474 1044L3128 949L3293 1242Z" fill="#051b06" stroke="#74ff00"></path><path d="M3100 0L3074 0L3150 257Z" fill="#12470c" stroke="#74ff00"></path><path d="M3422 1872L3351 1656L3275 1718Z" fill="#051b06" stroke="#74ff00"></path><path d="M3275 1718L3351 1656L3250 1513Z" fill="#0c380e" stroke="#74ff00"></path><path d="M3340 1291L3474 1044L3293 1242Z" fill="#001402" stroke="#74ff00"></path><path d="M264 1572L413 1493L199 1331Z" fill="#205f00" stroke="#74ff00"></path><path d="M484 1286L413 1493L562 1456Z" fill="#1b5705" stroke="#74ff00"></path><path d="M615 1767L489 1888L687 2000Z" fill="#0b300e" stroke="#74ff00"></path><path d="M1004 0L686 119L1020 181Z" fill="#0c380e" stroke="#74ff00"></path><path d="M625 327L323 308L464 600Z" fill="#0e400d" stroke="#74ff00"></path><path d="M3542 1251L3474 1044L3340 1291Z" fill="#1b5705" stroke="#74ff00"></path><path d="M3100 0L3150 257L3457 183Z" fill="#0b300e" stroke="#74ff00"></path><path d="M3150 257L3074 0L2948 286Z" fill="#0c380e" stroke="#74ff00"></path><path d="M3457 183L3150 257L3190 331Z" fill="#164f09" stroke="#74ff00"></path><path d="M1004 0L719 0L686 119Z" fill="#12470c" stroke="#74ff00"></path><path d="M161 503L237 838L464 600Z" fill="#0c380e" stroke="#74ff00"></path><path d="M3574 1671L3496 1460L3351 1656Z" fill="#001402" stroke="#74ff00"></path><path d="M3351 1656L3496 1460L3250 1513Z" fill="#164f09" stroke="#74ff00"></path><path d="M341 1594L615 1767L618 1679Z" fill="#1b5705" stroke="#74ff00"></path><path d="M3496 1460L3542 1251L3340 1291Z" fill="#12470c" stroke="#74ff00"></path><path d="M3600 794L3479 501L3415 743Z" fill="#051b06" stroke="#74ff00"></path><path d="M264 1572L341 1594L413 1493Z" fill="#001402" stroke="#74ff00"></path><path d="M413 1493L341 1594L618 1679Z" fill="#12470c" stroke="#74ff00"></path><path d="M3415 743L3479 501L3155 504Z" fill="#12470c" stroke="#74ff00"></path><path d="M3600 794L3415 743L3474 1044Z" fill="#051b06" stroke="#74ff00"></path><path d="M3479 501L3459 399L3155 504Z" fill="#09220a" stroke="#74ff00"></path><path d="M464 600L237 838L455 836Z" fill="#051b06" stroke="#74ff00"></path><path d="M167 1204L199 1331L484 1286Z" fill="#205f00" stroke="#74ff00"></path><path d="M384 212L625 327L686 119Z" fill="#051b06" stroke="#74ff00"></path><path d="M3136 2000L3422 1872L3275 1718Z" fill="#001402" stroke="#74ff00"></path><path d="M3768 1272L3656 1022L3542 1251Z" fill="#0b300e" stroke="#74ff00"></path><path d="M719 0L592 0L686 119Z" fill="#0b300e" stroke="#74ff00"></path><path d="M3656 1022L3600 794L3474 1044Z" fill="#051b06" stroke="#74ff00"></path><path d="M3649 423L3457 183L3459 399Z" fill="#0e400d" stroke="#74ff00"></path><path d="M199 1331L413 1493L484 1286Z" fill="#0a290c" stroke="#74ff00"></path><path d="M138 1742L368 2000L489 1888Z" fill="#051b06" stroke="#74ff00"></path><path d="M0 712L197 908L237 838Z" fill="#0e400d" stroke="#74ff00"></path><path d="M237 838L197 908L405 941Z" fill="#205f00" stroke="#74ff00"></path><path d="M167 1204L501 1014L405 941Z" fill="#051b06" stroke="#74ff00"></path><path d="M3542 1251L3656 1022L3474 1044Z" fill="#164f09" stroke="#74ff00"></path><path d="M3662 1369L3542 1251L3496 1460Z" fill="#1b5705" stroke="#74ff00"></path><path d="M197 908L167 1204L405 941Z" fill="#001402" stroke="#74ff00"></path><path d="M592 0L384 212L686 119Z" fill="#1b5705" stroke="#74ff00"></path><path d="M3136 2000L3413 2000L3422 1872Z" fill="#0c380e" stroke="#74ff00"></path><path d="M3422 1872L3574 1671L3351 1656Z" fill="#09220a" stroke="#74ff00"></path><path d="M3614 1747L3574 1671L3422 1872Z" fill="#0b300e" stroke="#74ff00"></path><path d="M384 212L323 308L625 327Z" fill="#001402" stroke="#74ff00"></path><path d="M3703 1415L3662 1369L3496 1460Z" fill="#001402" stroke="#74ff00"></path><path d="M3697 602L3479 501L3600 794Z" fill="#09220a" stroke="#74ff00"></path><path d="M3649 423L3459 399L3479 501Z" fill="#0c380e" stroke="#74ff00"></path><path d="M3459 399L3457 183L3190 331Z" fill="#205f00" stroke="#74ff00"></path><path d="M292 141L269 354L323 308Z" fill="#0e400d" stroke="#74ff00"></path><path d="M323 308L269 354L464 600Z" fill="#0c380e" stroke="#74ff00"></path><path d="M138 1742L489 1888L341 1594Z" fill="#09220a" stroke="#74ff00"></path><path d="M489 1888L368 2000L687 2000Z" fill="#205f00" stroke="#74ff00"></path><path d="M138 1742L341 1594L264 1572Z" fill="#001402" stroke="#74ff00"></path><path d="M3574 1671L3703 1415L3496 1460Z" fill="#0a290c" stroke="#74ff00"></path><path d="M3662 1369L3768 1272L3542 1251Z" fill="#051b06" stroke="#74ff00"></path><path d="M3864 1576L3703 1415L3574 1671Z" fill="#164f09" stroke="#74ff00"></path><path d="M3550 2000L3614 1747L3422 1872Z" fill="#051b06" stroke="#74ff00"></path><path d="M269 354L161 503L464 600Z" fill="#164f09" stroke="#74ff00"></path><path d="M197 908L0 1077L167 1204Z" fill="#0b300e" stroke="#74ff00"></path><path d="M3836 903L3600 794L3656 1022Z" fill="#0c380e" stroke="#74ff00"></path><path d="M3848 715L3697 602L3600 794Z" fill="#1b5705" stroke="#74ff00"></path><path d="M384 212L292 141L323 308Z" fill="#001402" stroke="#74ff00"></path><path d="M269 354L0 411L161 503Z" fill="#09220a" stroke="#74ff00"></path><path d="M592 0L411 0L384 212Z" fill="#051b06" stroke="#74ff00"></path><path d="M3697 602L3649 423L3479 501Z" fill="#001402" stroke="#74ff00"></path><path d="M4000 1320L3768 1272L3703 1415Z" fill="#001402" stroke="#74ff00"></path><path d="M3703 1415L3768 1272L3662 1369Z" fill="#0a290c" stroke="#74ff00"></path><path d="M411 0L292 141L384 212Z" fill="#0a290c" stroke="#74ff00"></path><path d="M3413 2000L3550 2000L3422 1872Z" fill="#0a290c" stroke="#74ff00"></path><path d="M3614 1747L3787 1717L3574 1671Z" fill="#001402" stroke="#74ff00"></path><path d="M0 1606L138 1742L264 1572Z" fill="#0b300e" stroke="#74ff00"></path><path d="M0 1433L264 1572L199 1331Z" fill="#051b06" stroke="#74ff00"></path><path d="M0 1433L199 1331L167 1204Z" fill="#09220a" stroke="#74ff00"></path><path d="M3625 0L3475 0L3457 183Z" fill="#164f09" stroke="#74ff00"></path><path d="M3457 183L3475 0L3100 0Z" fill="#0e400d" stroke="#74ff00"></path><path d="M138 1742L245 2000L368 2000Z" fill="#0c380e" stroke="#74ff00"></path><path d="M0 712L0 1077L197 908Z" fill="#0c380e" stroke="#74ff00"></path><path d="M0 1077L0 1107L167 1204Z" fill="#0e400d" stroke="#74ff00"></path><path d="M4000 1072L3836 903L3656 1022Z" fill="#0e400d" stroke="#74ff00"></path><path d="M3697 602L3898 355L3649 423Z" fill="#0a290c" stroke="#74ff00"></path><path d="M0 1107L0 1433L167 1204Z" fill="#12470c" stroke="#74ff00"></path><path d="M138 1742L0 2000L245 2000Z" fill="#0e400d" stroke="#74ff00"></path><path d="M161 503L0 712L237 838Z" fill="#001402" stroke="#74ff00"></path><path d="M0 625L0 712L161 503Z" fill="#0a290c" stroke="#74ff00"></path><path d="M0 411L0 625L161 503Z" fill="#164f09" stroke="#74ff00"></path><path d="M3836 903L3848 715L3600 794Z" fill="#09220a" stroke="#74ff00"></path><path d="M3649 423L3698 168L3457 183Z" fill="#001402" stroke="#74ff00"></path><path d="M3721 2000L3787 1717L3614 1747Z" fill="#0c380e" stroke="#74ff00"></path><path d="M3768 1272L4000 1072L3656 1022Z" fill="#12470c" stroke="#74ff00"></path><path d="M4000 883L3868 699L3848 715Z" fill="#1b5705" stroke="#74ff00"></path><path d="M0 1433L0 1606L264 1572Z" fill="#0c380e" stroke="#74ff00"></path><path d="M4000 883L3848 715L3836 903Z" fill="#001402" stroke="#74ff00"></path><path d="M3848 715L3868 699L3697 602Z" fill="#051b06" stroke="#74ff00"></path><path d="M3782 133L3698 168L3898 355Z" fill="#0a290c" stroke="#74ff00"></path><path d="M3787 1717L3864 1576L3574 1671Z" fill="#12470c" stroke="#74ff00"></path><path d="M0 165L269 354L292 141Z" fill="#1b5705" stroke="#74ff00"></path><path d="M0 165L0 411L269 354Z" fill="#001402" stroke="#74ff00"></path><path d="M3698 168L3625 0L3457 183Z" fill="#001402" stroke="#74ff00"></path><path d="M3550 2000L3721 2000L3614 1747Z" fill="#164f09" stroke="#74ff00"></path><path d="M3787 1717L4000 1658L3864 1576Z" fill="#001402" stroke="#74ff00"></path><path d="M0 1606L0 1788L138 1742Z" fill="#051b06" stroke="#74ff00"></path><path d="M411 0L158 0L292 141Z" fill="#205f00" stroke="#74ff00"></path><path d="M4000 1129L4000 1072L3768 1272Z" fill="#1b5705" stroke="#74ff00"></path><path d="M3898 355L3698 168L3649 423Z" fill="#164f09" stroke="#74ff00"></path><path d="M4000 1320L4000 1129L3768 1272Z" fill="#0a290c" stroke="#74ff00"></path><path d="M3898 355L3697 602L3868 699Z" fill="#09220a" stroke="#74ff00"></path><path d="M3698 168L3782 133L3625 0Z" fill="#164f09" stroke="#74ff00"></path><path d="M4000 1072L4000 883L3836 903Z" fill="#0e400d" stroke="#74ff00"></path><path d="M4000 1658L4000 1320L3864 1576Z" fill="#0e400d" stroke="#74ff00"></path><path d="M3864 1576L4000 1320L3703 1415Z" fill="#0e400d" stroke="#74ff00"></path><path d="M4000 396L3898 355L3868 699Z" fill="#0a290c" stroke="#74ff00"></path><path d="M158 0L0 165L292 141Z" fill="#1b5705" stroke="#74ff00"></path><path d="M0 1788L0 2000L138 1742Z" fill="#12470c" stroke="#74ff00"></path><path d="M4000 883L4000 695L3868 699Z" fill="#12470c" stroke="#74ff00"></path><path d="M4000 1746L4000 1658L3787 1717Z" fill="#164f09" stroke="#74ff00"></path><path d="M4000 295L3782 133L3898 355Z" fill="#0c380e" stroke="#74ff00"></path><path d="M4000 0L3817 0L3782 133Z" fill="#164f09" stroke="#74ff00"></path><path d="M3782 133L3817 0L3625 0Z" fill="#001402" stroke="#74ff00"></path><path d="M4000 2000L4000 1746L3787 1717Z" fill="#0c380e" stroke="#74ff00"></path><path d="M158 0L0 0L0 165Z" fill="#051b06" stroke="#74ff00"></path><path d="M4000 695L4000 396L3868 699Z" fill="#09220a" stroke="#74ff00"></path><path d="M4000 396L4000 295L3898 355Z" fill="#1b5705" stroke="#74ff00"></path><path d="M3721 2000L4000 2000L3787 1717Z" fill="#12470c" stroke="#74ff00"></path><path d="M4000 295L4000 0L3782 133Z" fill="#051b06" stroke="#74ff00"></path></g></svg>